<?xml version="1.0" encoding="UTF-8"?>
<svg width="372px" height="718px" viewBox="0 0 372 718" version="1.1" xmlns="http://www.w3.org/2000/svg" xmlns:xlink="http://www.w3.org/1999/xlink">
    <!-- Generator: Sketch 51.1 (57501) - http://www.bohemiancoding.com/sketch -->
    <title>iphone</title>
    <desc>Created with Sketch.</desc>
    <defs>
        <rect id="path-1" x="0" y="0" width="330.4" height="676.8" rx="47.7978732"></rect>
        <filter x="-13.8%" y="-4.4%" width="127.5%" height="113.4%" filterUnits="objectBoundingBox" id="filter-2">
            <feOffset dx="0" dy="14" in="SourceAlpha" result="shadowOffsetOuter1"></feOffset>
            <feGaussianBlur stdDeviation="10.5" in="shadowOffsetOuter1" result="shadowBlurOuter1"></feGaussianBlur>
            <feColorMatrix values="0 0 0 0 0   0 0 0 0 0   0 0 0 0 0  0 0 0 0.18 0" type="matrix" in="shadowBlurOuter1" result="shadowMatrixOuter1"></feColorMatrix>
            <feOffset dx="0" dy="2" in="SourceAlpha" result="shadowOffsetOuter2"></feOffset>
            <feGaussianBlur stdDeviation="3.5" in="shadowOffsetOuter2" result="shadowBlurOuter2"></feGaussianBlur>
            <feColorMatrix values="0 0 0 0 0   0 0 0 0 0   0 0 0 0 0  0 0 0 0.16 0" type="matrix" in="shadowBlurOuter2" result="shadowMatrixOuter2"></feColorMatrix>
            <feMerge>
                <feMergeNode in="shadowMatrixOuter1"></feMergeNode>
                <feMergeNode in="shadowMatrixOuter2"></feMergeNode>
            </feMerge>
        </filter>
        <filter x="-10.7%" y="-2.9%" width="121.5%" height="110.5%" filterUnits="objectBoundingBox" id="filter-3">
            <feGaussianBlur stdDeviation="4.5" in="SourceAlpha" result="shadowBlurInner1"></feGaussianBlur>
            <feOffset dx="0" dy="-6" in="shadowBlurInner1" result="shadowOffsetInner1"></feOffset>
            <feComposite in="shadowOffsetInner1" in2="SourceAlpha" operator="arithmetic" k2="-1" k3="1" result="shadowInnerInner1"></feComposite>
            <feColorMatrix values="0 0 0 0 0   0 0 0 0 0   0 0 0 0 0  0 0 0 0.08 0" type="matrix" in="shadowInnerInner1"></feColorMatrix>
        </filter>
        <rect id="path-4" x="14.9212903" y="14.8747253" width="300.557419" height="647.050549" rx="31.8652488"></rect>
        <rect id="path-6" x="0" y="0" width="294" height="38.416"></rect>
        <filter x="0.0%" y="0.0%" width="100.0%" height="100.0%" filterUnits="objectBoundingBox" id="filter-7">
            <feOffset dx="0" dy="0" in="SourceAlpha" result="shadowOffsetInner1"></feOffset>
            <feComposite in="shadowOffsetInner1" in2="SourceAlpha" operator="arithmetic" k2="-1" k3="1" result="shadowInnerInner1"></feComposite>
            <feColorMatrix values="0 0 0 0 0   0 0 0 0 0   0 0 0 0 0  0 0 0 0.25 0" type="matrix" in="shadowInnerInner1"></feColorMatrix>
        </filter>
    </defs>
    <g id="Page-1" stroke="none" stroke-width="1" fill="none" fill-rule="evenodd">
        <g id="Desktop-HD-Copy" transform="translate(-905.000000, -194.000000)">
            <g id="mock" transform="translate(926.000000, 201.000000)">
                <g id="iphone">
                    <g id="base">
                        <use fill="black" fill-opacity="1" filter="url(#filter-2)" xlink:href="#path-1"></use>
                        <use fill="#FFFFFF" fill-rule="evenodd" xlink:href="#path-1"></use>
                        <use fill="black" fill-opacity="1" filter="url(#filter-3)" xlink:href="#path-1"></use>
                    </g>
                    <mask id="mask-5" fill="white">
                        <use xlink:href="#path-4"></use>
                    </mask>
                    <use id="mask" fill="#FAFAFA" xlink:href="#path-4"></use>
                    <g id="Bars/Tab-Bar/5-Items" mask="url(#mask-5)">
                        <g transform="translate(18.865558, 600.728621)">
                            <g id="Bar">
                                <use fill-opacity="0.9" fill="#FAFAFA" fill-rule="evenodd" xlink:href="#path-6"></use>
                                <use fill="black" fill-opacity="1" filter="url(#filter-7)" xlink:href="#path-6"></use>
                            </g>
                            <g id="Overrides/Tab-Bar/Item" transform="translate(245.392000, 0.000000)">
                                <text id="Label" font-family=".AppleSystemUIFont" font-size="7.84" font-weight="normal" letter-spacing="0.0940799979" fill="#8E8E93">
                                    <tspan x="8.03048751" y="35.832">Label</tspan>
                                </text>
                                <g id="Overrides/Tab-Bar/Icons/Unselected/5" transform="translate(0.000000, 1.568000)" fill="#8E8E93" fill-rule="evenodd">
                                    <path d="M19.6,3.19664261 L27.0282719,7.48535739 C27.5134128,7.76545361 27.8122719,8.28309278 27.8122719,8.84328522 L27.8122719,17.4207148 C27.8122719,17.9809072 27.5134128,18.4985464 27.0282719,18.7786426 L19.6,23.0673574 C19.1148591,23.3474536 18.5171409,23.3474536 18.032,23.0673574 L10.6037281,18.7786426 C10.1185872,18.4985464 9.81972811,17.9809072 9.81972811,17.4207148 L9.81972811,8.84328522 C9.81972811,8.28309278 10.1185872,7.76545361 10.6037281,7.48535739 L18.032,3.19664261 C18.5171409,2.91654639 19.1148591,2.91654639 19.6,3.19664261 Z" id="Polygon"></path>
                                </g>
                            </g>
                            <g id="Overrides/Tab-Bar/Item" transform="translate(186.592000, 0.000000)">
                                <text id="Label" font-family=".AppleSystemUIFont" font-size="7.84" font-weight="normal" letter-spacing="0.0940799979" fill="#8E8E93">
                                    <tspan x="8.03048751" y="35.832">Label</tspan>
                                </text>
                                <g id="Overrides/Tab-Bar/Icons/Unselected/4" transform="translate(0.000000, 1.568000)" fill="#8E8E93" fill-rule="evenodd">
                                    <path d="M20.1893144,5.23631129 L28.1190295,19.6272757 C28.5369568,20.3857363 28.2609,21.3393871 27.5024394,21.7573144 C27.2706676,21.8850254 27.0103436,21.952 26.7457151,21.952 L10.8862849,21.952 C10.0203024,21.952 9.31828489,21.2499825 9.31828489,20.384 C9.31828489,20.1193715 9.38525954,19.8590475 9.51297051,19.6272757 L17.4426856,5.23631129 C17.8606129,4.4778507 18.8142637,4.2017939 19.5727243,4.61972116 C19.832419,4.76281826 20.0462173,4.97661656 20.1893144,5.23631129 Z" id="Triangle"></path>
                                </g>
                            </g>
                            <g id="Overrides/Tab-Bar/Item" transform="translate(128.184000, 0.000000)">
                                <text id="Label" font-family=".AppleSystemUIFont" font-size="7.84" font-weight="normal" letter-spacing="0.0940799979" fill="#8E8E93">
                                    <tspan x="8.03048751" y="35.832">Label</tspan>
                                </text>
                                <g id="Overrides/Tab-Bar/Icons/Unselected/3" transform="translate(0.000000, 1.568000)" fill="#8E8E93" fill-rule="evenodd">
                                    <rect id="Rectangle" x="9.8" y="4.312" width="18.032" height="18.032"></rect>
                                </g>
                            </g>
                            <g id="Overrides/Tab-Bar/Item" transform="translate(69.776000, 0.000000)">
                                <text id="Label" font-family=".AppleSystemUIFont" font-size="7.84" font-weight="normal" letter-spacing="0.0940799979" fill="#8E8E93">
                                    <tspan x="8.03048751" y="35.832">Label</tspan>
                                </text>
                                <g id="Overrides/Tab-Bar/Icons/Unselected/2" transform="translate(0.000000, 1.568000)" fill="#8E8E93" fill-rule="evenodd">
                                    <circle id="Oval" cx="18.816" cy="13.328" r="9.8"></circle>
                                </g>
                            </g>
                            <g id="Overrides/Tab-Bar/Item---Active" transform="translate(10.976000, 0.000000)">
                                <text id="Label" font-family=".AppleSystemUIFont" font-size="7.84" font-weight="normal" letter-spacing="0.0940799979" fill="#0076FF">
                                    <tspan x="8.03048751" y="35.832">Label</tspan>
                                </text>
                                <g id="Overrides/Tab-Bar/Icons/Active/1" transform="translate(0.000000, 0.784000)" fill="#007AFF" fill-rule="evenodd">
                                    <path d="M28.187908,10.1148811 L21.9909042,10.1148811 C21.6203187,10.1169166 21.2901476,9.88121552 21.1716924,9.53006579 L19.2628115,3.72150165 C19.1429615,3.3712928 18.8137487,3.136 18.4435997,3.136 C18.0734507,3.136 17.7442379,3.3712928 17.6243879,3.72150165 L15.715507,9.53006579 C15.5970518,9.88121552 15.2668807,10.1169166 14.8962952,10.1148811 L8.69929143,10.1148811 C8.33109087,10.1066188 8.00041089,10.3390625 7.88351481,10.688312 C7.76661873,11.0375616 7.89074648,11.4222324 8.18973387,11.6372823 L13.218675,15.2504373 C13.5158062,15.4614526 13.6412541,15.841131 13.5283292,16.1876312 L11.6116088,22.0220652 C11.5292343,22.2823256 11.5770925,22.5663229 11.7402119,22.7852136 C11.9033313,23.0041043 12.1617924,23.1311583 12.4347403,23.1266292 C12.6167556,23.1257807 12.7938035,23.0671765 12.9403781,22.9592591 L17.9340421,19.3719739 C18.2387986,19.1540546 18.6484008,19.1540546 18.9531573,19.3719739 L23.9468213,22.9592591 C24.0933959,23.0671765 24.2704438,23.1257807 24.4524591,23.1266292 C24.725407,23.1311583 24.9838681,23.0041043 25.1469875,22.7852136 C25.3101069,22.5663229 25.3579651,22.2823256 25.2755906,22.0220652 L23.3588702,16.1876312 C23.2459454,15.841131 23.3713932,15.4614526 23.6685245,15.2504373 L28.6974655,11.6372823 C28.9964529,11.4222324 29.1205807,11.0375616 29.0036846,10.688312 C28.8867885,10.3390625 28.5561085,10.1066188 28.187908,10.1148811 Z" id="Star"></path>
                                </g>
                            </g>
                        </g>
                    </g>
                    <path d="M84.1987097,14.8747253 L246.20129,14.8747253 L246.20129,20.1923192 C246.20129,30.1649108 238.116908,38.2492936 228.144316,38.2492936 L102.255684,38.2492936 C92.2830925,38.2492936 84.1987097,30.1649108 84.1987097,20.1923192 L84.1987097,14.8747253 Z" id="bar" fill="#FFFFFF"></path>
                    <g id="Group-2" transform="translate(17.000000, 55.000000)">
                        <rect id="Rectangle-19" fill="#E6E6E6" x="0" y="0" width="297" height="25"></rect>
                        <text id="https://www.circleme" font-family="Helvetica" font-size="14" font-weight="normal" fill="#9B9B9B">
                            <tspan x="59.0141602" y="18">https://www.</tspan>
                            <tspan x="134.489746" y="18" font-family="Helvetica-Bold, Helvetica" font-weight="bold">circlemesh</tspan>
                            <tspan x="207.647949" y="18">.com</tspan>
                        </text>
                    </g>
                    <path d="M16.4,594.8 L314.8,594.8" id="Line" stroke="#D9D9D9" stroke-width="0.8" stroke-linecap="square"></path>
                </g>
            </g>
        </g>
    </g>
</svg>